 <svg version="1.1" xmlns="http://www.w3.org/2000/svg" xmlns:xlink="http://www.w3.org/1999/xlink" 
                viewBox="0 0 1000 1000">
               <!-- Modified Atlas Silhouette - removed upper torso detail, made more neutral -->
               <path d="M687.8,817.9c-2.9,2.3-35-9.2-50.4-21.8s-39.6-12.6-46.4-17.8c-2.6-1.9-5.9-4.6-9.1-7.2c-5.3-4.4-7.9-11.4-6.4-18.1
                   c0.6-2.8,1.1-6.1,1.1-9.6c0-10.9-8.6-66.5-8.6-66.5s59.7-24.6,68.5-64c7-31.3-2.6-55.8-2.6-55.8s25.3-6.3,39.6-20.1
                   C687.8,523.3,772,394.4,768,376c-4-18.3-48.1-70.5-66.5-78.5c-18.3-8-36.7-16-45.9-25.8c-9.2-9.7-46.4-41.3-64.2-44.7
                   c-17.8-3.4-22.4,0-22.4,0l-58.9-23.3c-7.3-2.9-12-10.1-11.6-17.9l1.1-23.6c0,0,16-33.2,14.9-39c-1.1-5.7-4-8.6-4-8.6
                   s10.9-46.4-19.5-65.3s-63.1-24.6-81.4-13.2c-18.3,11.5-14.9,38.4-14.9,38.4s-5.3,27.5-3.5,34.4c1.8,6.9,2.9,16.6,2.9,16.6
                   s-3.9,10.2-2.3,17.6s8.6,48.8,20.6,52.3c3.5,1,5.2,5.2,6.1,9.8c1.4,7.3-1.8,14.8-8,18.8c-22.8,14.8-82.1,54.2-85.8,64.8
                   c-4.6,13.2,0.6,41.3-4,57.3c-4.6,16-13.2,75.1,0,101.5s37.3,75.7,42.4,90.6c5.2,14.9,15.5,33.2,15.5,33.2S340,624.8,348,650.6
                   c8,25.8,91.3,139.4,103,177.1c8.6,27.5,4,53.3-6.9,73.9c-10.9,20.6-20.6,32.1-20.6,32.1s-31,20.6-32.1,33.8s12.6,18.3,39,16.6
                   c26.4-1.7,63.6,2.9,72.2-4c8.6-6.9,2.9-13.4,19.5-21c16.6-7.6,33.8-19.1,21.2-46c-12.6-26.9-19.5-41.3-25.2-44.7
                   c-5.7-3.4-3.2-47.8-3.2-47.8s21,32.9,37,29.5s21.8-8,31-7.5c9.2,0.6,32.1,9.2,47.6,10.3c15.5,1.1,31,1.7,31,10.3
                   c0,8.6-1.7,26.4-9.7,40.7c-8,14.3-21.2,39.6-4,47c17.2,7.5,50.4,2.3,55.6-12c5.2-14.3,0-28.1,4.6-37.3c4.6-9.2,35.5-35.5,28.1-57.3
                   C728.5,822.5,690.6,815.6,687.8,817.9z"
                   fill="none" 
                   stroke="#000000" 
                   stroke-width="8"/>
           
               <!-- Filled R -->
               <path d="M380,300 
                        L380,500
                        L420,500
                        L420,420
                        L460,500
                        L510,500
                        L460,410
                        C490,400 510,370 510,340
                        C510,300 480,300 450,300
                        Z
                        M420,340
                        L450,340
                        C460,340 470,340 470,360
                        C470,380 460,380 450,380
                        L420,380
                        Z"
                     fill="#4F46E5"/>
           
               <!-- Filled J -->
               <path d="M580,300
                        L580,440
                        C580,480 560,510 520,510
                        C480,510 460,490 460,450
                        L500,450
                        C500,470 505,480 520,480
                        C535,480 540,470 540,440
                        L540,300
                        Z"
                     fill="#4F46E5"/>
           
               <!-- Modified detail paths -->
               <path d="M594.9,435.6c5.7-33.2,20.1-98,20.1-98l17.2,4c0,0,12.6,15.5,32.1,22.9c19.5,7.5,40.1,18.3,40.1,18.3s-19.2,39.4-22.6,50.8
                   s-29,63.2-29,63.2l-48.1,4.6C604.6,501.5,589.2,468.9,594.9,435.6z"
                     fill="none"
                     stroke="#000000"
                     stroke-width="6"/>
           
               <path d="M385.7,501.5c-9.2-5.7-9.2-44.7-8.6-64.8c0.6-20.1-13.8-32.7-13.8-32.7l4-16c0,0,9.2,4.6,20.6,20.1
                   c8.7,11.7,9.7,96.9,9.7,96.9S394.9,507.3,385.7,501.5z"
                     fill="none"
                     stroke="#000000"
                     stroke-width="6"/>
           </svg>